<svg id="Logo-Btns" xmlns="http://www.w3.org/2000/svg" viewBox="0 0 211.48 46.78"><defs><style>.cls-1{fill:#95d600;}.cls-2{fill:#003764;}.cls-3{fill:#00add8;}.cls-4{fill:#aedeef;}</style></defs><title>Logo</title><path class="cls-1" d="M170.81,40.36c0.91-1.21,1.6-2.54,2.54-3.75a65.8,65.8,0,0,1,11.17-11.21c3.17-2.5,9.84-6.3,14.41-6.31,7.89,0,10.17,5.82,11.76,12,1.4,5.46.55,12.25,0.55,12.26-0.31,2.44-.45,4.64-1.61,7-2.53,5.1-7.9,8.85-14.24,9.8-6.93,1-15,.35-21.26-2.54a14.56,14.56,0,0,1-4.41-3.09C165.51,50,167.75,44.46,170.81,40.36Z" transform="translate(0 -19.08)"/><path class="cls-2" d="M170.81,40.36s-2,2.64,7.56,8.57c0,0,9,5.51,17.84,5.49,0,0,13.87.84,15-11.07,0,0,.85-6.8-0.55-12.26-1.59-6.19-3.87-12-11.76-12-4.57,0-11.24,3.81-14.41,6.31a65.8,65.8,0,0,0-11.17,11.21C172.41,37.82,171.71,39.15,170.81,40.36Z" transform="translate(0 -19.08)"/><path class="cls-3" d="M170.81,40.36s-2,2.64,7.56,8.57c0,0,9,5.51,17.84,5.49,0,0,13.87.84,15-11.07s-2.49-17.1-10-17.08S176.13,33.53,170.81,40.36Z" transform="translate(0 -19.08)"/><path class="cls-4" d="M188.51,35.59c-5,.2-15.1,1.1-17.7,5,0,0-2.06,2.76,7.91,9,0,0,9.44,5.76,18.64,5.74s13.08-3.49,13.41-9.32-4.66-11.2-19.4-10.43c0,0-1.13,0-2.86.06" transform="translate(0 -19.08)"/><path class="cls-2" d="M0.08,57.12L0,24l20.93,0v6.12l-14.48,0,0,8.18,12.9,0v5.93l-12.85,0,0,12.9H0.08Z" transform="translate(0 -19.08)"/><path class="cls-2" d="M46.73,45.52a11.8,11.8,0,0,1-12,12.22A11.8,11.8,0,0,1,22.62,45.58a11.77,11.77,0,0,1,12-12.22A11.77,11.77,0,0,1,46.73,45.52Zm-6.21,0c0-4.35-2.82-6.54-5.85-6.53s-5.84,2.21-5.83,6.55,2.82,6.53,5.85,6.53S40.53,49.88,40.52,45.54Z" transform="translate(0 -19.08)"/><path class="cls-2" d="M57.88,57l-6.21,0L51.62,34h6v2.85a7.64,7.64,0,0,1,6.63-3.47c5.7,0,8.33,4,8.34,9.09l0,14.48H66.43l0-13.41C66.4,41,65.13,39,62.14,39c-2.71,0-4.29,2.11-4.29,4.78Z" transform="translate(0 -19.08)"/><path class="cls-2" d="M100.86,52.73c0,1.54.1,3.22,0.2,4.16H95.13a16,16,0,0,1-.24-2.66c-1,1.82-3.36,3.23-6.44,3.24-6.54,0-11.23-5.11-11.24-12.08,0-6.73,4.51-12,11-12,4,0,5.84,1.62,6.5,2.84l0-13.13h6.12Zm-11.68-.81c3.18,0,5.65-2.44,5.64-6.6s-2.49-6.4-5.67-6.39-5.69,2.35-5.69,6.46S85.91,51.93,89.18,51.92Z" transform="translate(0 -19.08)"/><path class="cls-2" d="M110.61,22.48a3.83,3.83,0,1,1-3.82,3.89A3.83,3.83,0,0,1,110.61,22.48Zm-3,34.4-0.05-23h6.21l0.05,23H107.6Z" transform="translate(0 -19.08)"/><path class="cls-2" d="M127.83,31.32v2.52H133v5.33h-5.19l0,17.66h-6.26l0-17.66h-3.83V33.86h3.83V31.24c0-5.19,3.25-8.56,8.34-8.57a9,9,0,0,1,3.08.46v5.23a6.92,6.92,0,0,0-2-.23A2.93,2.93,0,0,0,127.83,31.32Z" transform="translate(0 -19.08)"/><path class="cls-2" d="M139.52,65.86l5.39-12L135.1,33.81l7,0,6.15,13.44,5.62-13.47,6.64,0L146.11,65.84Z" transform="translate(0 -19.08)"/></svg>